<svg xmlns="http://www.w3.org/2000/svg" viewBox="0 0 519.6 600"><defs><style>.a{fill:#750787;}.b{fill:#004dff;}.c{fill:#008026;}.d{fill:#ffed00;}.e{fill:#ff8c00;}.f{fill:#e40303;}.g{fill:#fff;}</style></defs><polygon class="a" points="259.8 576.8 418.8 485 100.8 485 259.8 576.8"/><polygon class="b" points="20.7 438.7 100.8 485 418.8 485 498.9 438.7 498.9 392.5 20.7 392.5 20.7 438.7"/><rect class="c" x="20.7" y="300" width="478.2" height="92.5"/><rect class="d" x="20.7" y="207.5" width="478.2" height="92.5"/><polygon class="e" points="20.7 207.5 498.9 207.5 498.9 162.7 416.3 115 103.3 115 20.7 162.7 20.7 207.5"/><polygon class="f" points="259.8 24.6 103.3 115 416.3 115 259.8 24.6"/><path d="M498.9,138,302.5,24.6,259.8,0,217.2,24.6,20.7,138,0,150V450l20.7,12L219.6,576.8,259.8,600,300,576.8,498.9,462l20.7-12V150Zm0,300.7-239.1,138L20.7,438.7V162.6l239.1-138,239.1,138Z"/><path d="M117.6,382.7c-10.4,0-18-6.6-18-15.8,0-14,15.1-17.8,30.9-19.2-1-2.9-3.5-4.2-7.6-4.2-3.8,0-8.2,1.5-13.5,4.6a2.82,2.82,0,0,1-1.5.4,2.2,2.2,0,0,1-.8-.1,2.83,2.83,0,0,1-1.8-1.4l-3.5-6a3,3,0,0,1,1-4c4.1-2.5,12.3-6.7,21.6-6.7,13.5,0,21.6,8.1,21.6,21.7v26.7a3,3,0,0,1-3,3h-7.5a3,3,0,0,1-3-2.6l-.1-1A28.81,28.81,0,0,1,117.6,382.7ZM131,359.5c-16.6,1.6-16.6,5.5-16.6,6.8s.7,3.3,5.7,3.3c3.4,0,6.9-1.4,10.8-4.4v-5.7Z"/><path class="g" d="M124.5,333.2c-7.7,0-15.1,3.2-20,6.3l3.5,6c4.3-2.5,9.6-5,15-5,7.9,0,10.8,4.4,11.1,9.9-22.4,1.7-31.4,6.6-31.4,16.5,0,7.8,6.5,12.8,15,12.8,6.1,0,12.2-3.1,17-6.8h.3l.7,5.8h7.5V352C143.1,340.2,136.7,333.2,124.5,333.2Zm9.5,33.4c-4.6,3.7-9.1,6-13.8,6s-8.7-1.8-8.7-6.3c0-5.3,5.2-8.8,22.6-10v10.3Z"/><path d="M181.6,382.7c-16.4,0-27.4-10.5-27.4-26.2,0-15.5,11.5-26.3,28-26.3a25.4,25.4,0,0,1,18.3,7.2,3.05,3.05,0,0,1,.3,4l-4.3,5.7a3.22,3.22,0,0,1-2,1.2h-.3a2.64,2.64,0,0,1-1.9-.7c-3.3-2.7-6.3-4-9.6-4-8,0-13.1,5.1-13.1,12.9s5,12.7,12.8,12.7c3.8,0,7.5-1.5,11.3-4.5a3.16,3.16,0,0,1,1.9-.7h.4a2.77,2.77,0,0,1,2,1.3l3.9,5.8a3,3,0,0,1-.5,3.9A30.07,30.07,0,0,1,181.6,382.7Z"/><path class="g" d="M182.3,372.3c-9.4,0-15.8-6.3-15.8-15.7s6.6-15.9,16.1-15.9c4.3,0,7.9,1.7,11.5,4.6l4.3-5.7a22.8,22.8,0,0,0-16.3-6.4c-13.5,0-25,8.5-25,23.3s10.5,23.2,24.4,23.2a27.31,27.31,0,0,0,17.8-6.8l-3.9-5.8C191.9,370,187.6,372.3,182.3,372.3Z"/><path d="M240.3,382.7c-9.4,0-20.7-3.8-20.7-21.6V344.5h-9.2a3,3,0,0,1-3-3v-6.7a3.06,3.06,0,0,1,2.9-3l9.9-.4,1-11.4a2.89,2.89,0,0,1,3-2.7h7.5a3,3,0,0,1,3,3v11h17.9a3,3,0,0,1,3,3v7.2a3,3,0,0,1-3,3H234.7v16.6c0,6.4,1.8,8.3,7.7,8.3a25.18,25.18,0,0,0,9.1-1.7,3,3,0,0,1,2.4.1,3.17,3.17,0,0,1,1.5,1.9l1.8,6.6a3,3,0,0,1-1.9,3.6A43.08,43.08,0,0,1,240.3,382.7Z"/><path class="g" d="M242.4,372.4c-8,0-10.7-3.7-10.7-11.3V341.5h20.9v-7.2H231.7v-14h-7.5l-1.2,14-12.6.5v6.7h12.2v19.6c0,11.1,4.4,18.6,17.7,18.6a40.16,40.16,0,0,0,14-2.6l-1.8-6.6A26.73,26.73,0,0,1,242.4,372.4Z"/><path d="M290.6,328.6c-5.6,0-9.7-4-9.7-9.4s4.1-9.4,9.7-9.4,9.7,4,9.7,9.4S296.2,328.6,290.6,328.6Z"/><path class="g" d="M290.6,312.8c-3.9,0-6.7,2.6-6.7,6.4s2.8,6.4,6.7,6.4,6.7-2.5,6.7-6.4S294.5,312.8,290.6,312.8Z"/><path d="M286.8,381.6a3,3,0,0,1-3-3V344.5H267a3,3,0,0,1-3-3v-7.2a3,3,0,0,1,3-3h28.9a3,3,0,0,1,3,3v44.3a3,3,0,0,1-3,3Z"/><polygon class="g" points="267 341.5 286.8 341.5 286.8 378.6 295.9 378.6 295.9 334.3 267 334.3 267 341.5"/><path d="M335.8,381.6a3,3,0,0,1-2.8-1.9l-18.2-44.3a2.82,2.82,0,0,1,.3-2.8,3.13,3.13,0,0,1,2.5-1.3h9.2a3.17,3.17,0,0,1,2.8,1.9l9.4,24c.7,1.9,1.4,3.8,2,5.6.6-1.8,1.3-3.7,2-5.6l9.4-24a3,3,0,0,1,2.8-1.9h8.7a3.13,3.13,0,0,1,2.5,1.3,2.82,2.82,0,0,1,.3,2.8l-17.8,44.3a3.17,3.17,0,0,1-2.8,1.9Z"/><path class="g" d="M345.8,358.3c-1.7,4.5-3.1,8.9-4.6,13.3h-.4c-1.5-4.4-3-8.8-4.7-13.3l-9.4-24h-9.2l18.2,44.3H346l17.8-44.3h-8.7Z"/><path d="M397.9,382.7c-15.9,0-27.1-10.8-27.1-26.3,0-14.9,11.1-26.2,25.7-26.2,14.2,0,23.4,9.4,23.4,23.9,0,1.6-.2,3.5-.4,5.4a2.93,2.93,0,0,1-3,2.5h-30c2.3,6.5,8.6,7.6,12.5,7.6a20.24,20.24,0,0,0,11.4-3.5,2.82,2.82,0,0,1,1.5-.4,2.2,2.2,0,0,1,.8.1,2.6,2.6,0,0,1,1.8,1.4l3.2,5.7a3,3,0,0,1-1,4A33.2,33.2,0,0,1,397.9,382.7Zm7.4-33.3c-1.2-4.2-4-6.2-8.5-6.2a10.35,10.35,0,0,0-9.8,6.2Z"/><path class="g" d="M417,354.1c0-12.4-7.4-20.9-20.4-20.9-11.9,0-22.7,8.7-22.7,23.2,0,14.8,10.6,23.3,24.1,23.3a31.65,31.65,0,0,0,17.3-5.3l-3.2-5.7a24.22,24.22,0,0,1-13,3.9c-8.7,0-15.2-4.5-16.2-13.6h33.7A45.78,45.78,0,0,0,417,354.1Zm-20.2-13.9c6.9,0,11.4,4.1,12.1,12.2H383C384.4,344.5,390.1,340.2,396.8,340.2Z"/><path d="M164.5,289.1a2.81,2.81,0,0,1-2.4-1.3L149,269.5l-6,6v10.6a3,3,0,0,1-3,3h-9a3,3,0,0,1-3-3V221.8a3,3,0,0,1,3-3h9a3,3,0,0,1,3,3v34.9l17.1-17.1a2.88,2.88,0,0,1,2.1-.9h10.2a3,3,0,0,1,2.2,5.1L159,259.5l18.1,24.7a2.91,2.91,0,0,1-2.4,4.7H164.5v.2Z"/><polygon class="g" points="172.3 241.8 162.1 241.8 140.3 263.6 139.9 263.6 139.9 221.8 130.9 221.8 130.9 286.1 139.9 286.1 139.9 274.3 149.3 264.9 164.5 286.1 174.4 286.1 154.8 259.3 172.3 241.8"/><path d="M215.3,289.1a3,3,0,0,1-3-3V259.8c0-7.7-2.7-8.3-6.2-8.3-3.2,0-5.6,1.3-9.6,5.3v29.3a3,3,0,0,1-3,3h-9a3,3,0,0,1-3-3V241.8a3,3,0,0,1,3-3h7.4a3.11,3.11,0,0,1,3,2.7l.1,1.5a22.57,22.57,0,0,1,14.3-5.2c15.7,0,18.1,13.1,18.1,20.9v27.5a3,3,0,0,1-3,3h-9.1Z"/><path class="g" d="M209.2,240.7c-6.8,0-11.9,3.6-16.3,8.2h-.4l-.7-7.1h-7.4v44.3h9V255.5c4.6-4.7,7.8-7.1,12.6-7.1,6.6,0,9.2,3.6,9.2,11.3V286h9V258.5C224.3,247.1,219.6,240.7,209.2,240.7Z"/><path d="M262.4,236.1c-5.6,0-9.7-4-9.7-9.4s4.1-9.4,9.7-9.4,9.7,4,9.7,9.4S268,236.1,262.4,236.1Z"/><path class="g" d="M262.4,220.3c-3.9,0-6.7,2.6-6.7,6.4s2.8,6.4,6.7,6.4,6.7-2.5,6.7-6.4S266.3,220.3,262.4,220.3Z"/><path d="M258.6,289.1a3,3,0,0,1-3-3V252H238.8a3,3,0,0,1-3-3v-7.2a3,3,0,0,1,3-3h28.9a3,3,0,0,1,3,3v44.3a3,3,0,0,1-3,3Z"/><polygon class="g" points="238.8 249 258.6 249 258.6 286.1 267.7 286.1 267.7 241.8 238.8 241.8 238.8 249"/><path d="M320.9,290.2c-9.4,0-20.7-3.8-20.7-21.6V252H291a3,3,0,0,1-3-3v-6.7a3.06,3.06,0,0,1,2.9-3l9.9-.4,1-11.4a2.89,2.89,0,0,1,3-2.7h7.5a3,3,0,0,1,3,3v11h17.9a3,3,0,0,1,3,3V249a3,3,0,0,1-3,3H315.3v16.6c0,6.4,1.8,8.3,7.7,8.3a25.18,25.18,0,0,0,9.1-1.7,3,3,0,0,1,2.4.1,3.17,3.17,0,0,1,1.5,1.9l1.8,6.6a3,3,0,0,1-1.9,3.6A42.62,42.62,0,0,1,320.9,290.2Z"/><path class="g" d="M323,279.9c-8,0-10.7-3.7-10.7-11.3V249h20.9v-7.2H312.3v-14h-7.5l-1.2,14-12.6.5V249h12.2v19.6c0,11.1,4.4,18.6,17.7,18.6a40.16,40.16,0,0,0,14-2.6l-1.8-6.6A26.35,26.35,0,0,1,323,279.9Z"/><path d="M352.2,289.1a3,3,0,0,1-3-3V241.8a3,3,0,0,1,3-3h7.5a3,3,0,0,1,3,2.8l.2,3.1a24.29,24.29,0,0,1,17.1-6.9,21.06,21.06,0,0,1,10,2.1,3,3,0,0,1,1.6,3.4l-2,7.7a2.85,2.85,0,0,1-1.5,1.9,3.31,3.31,0,0,1-1.5.4,2.77,2.77,0,0,1-.9-.1,20.31,20.31,0,0,0-7.2-1.3c-5.8,0-10.5,3.3-14.4,10v24.4a3,3,0,0,1-3,3h-8.9v-.2Z"/><path class="g" d="M380,240.7c-7.9,0-14.7,4.2-19.3,11.4h-.2l-.8-10.3h-7.5v44.3h9V261c4.9-8.9,11-12.2,17.4-12.2a23.75,23.75,0,0,1,8.1,1.4l2-7.7A18.57,18.57,0,0,0,380,240.7Z"/><path d="M210.5,174.3a3.44,3.44,0,0,1-2.1-.8l-14.8-14a3.14,3.14,0,0,1,0-4.4l6.2-6.1a3.23,3.23,0,0,1,2.1-.8h.1a2.61,2.61,0,0,1,2.1,1.1l13.2,15.6a3.07,3.07,0,0,1-.2,4.1l-4.6,4.4A2.66,2.66,0,0,1,210.5,174.3Z"/><path class="g" d="M195.7,157.3l6.2-6.1,13.2,15.6-4.6,4.4Z"/><path d="M264.9,174.3a3.44,3.44,0,0,1-2.1-.8l-14.8-14a3.14,3.14,0,0,1,0-4.4l6.2-6.1a3.23,3.23,0,0,1,2.1-.8h.1a2.61,2.61,0,0,1,2.1,1.1l13.2,15.6a3.07,3.07,0,0,1-.2,4.1l-4.6,4.4A2.52,2.52,0,0,1,264.9,174.3Z"/><path class="g" d="M250.1,157.3l6.2-6.1,13.2,15.6-4.6,4.4Z"/><path d="M319.3,174.3a3.44,3.44,0,0,1-2.1-.8l-14.8-14a3.14,3.14,0,0,1,0-4.4l6.2-6.1a3.23,3.23,0,0,1,2.1-.8h.1a2.61,2.61,0,0,1,2.1,1.1l13.2,15.6a3.07,3.07,0,0,1-.2,4.1l-4.6,4.4A2.52,2.52,0,0,1,319.3,174.3Z"/><path class="g" d="M304.5,157.3l6.2-6.1,13.2,15.6-4.6,4.4Z"/><path d="M210.5,451.8a3.44,3.44,0,0,1-2.1-.8l-14.8-14a3.14,3.14,0,0,1,0-4.4l6.2-6.1a3.23,3.23,0,0,1,2.1-.8h.1a2.61,2.61,0,0,1,2.1,1.1l13.2,15.6a3.07,3.07,0,0,1-.2,4.1l-4.6,4.4A2.66,2.66,0,0,1,210.5,451.8Z"/><path class="g" d="M195.7,434.8l6.2-6.1,13.2,15.6-4.6,4.4Z"/><path d="M264.9,451.8a3.44,3.44,0,0,1-2.1-.8L248,437a3.14,3.14,0,0,1,0-4.4l6.2-6.1a3.23,3.23,0,0,1,2.1-.8h.1a2.61,2.61,0,0,1,2.1,1.1l13.2,15.6a3.07,3.07,0,0,1-.2,4.1l-4.6,4.4A2.52,2.52,0,0,1,264.9,451.8Z"/><path class="g" d="M250.1,434.8l6.2-6.1,13.2,15.6-4.6,4.4Z"/><path d="M319.3,451.8a3.44,3.44,0,0,1-2.1-.8l-14.8-14a3.14,3.14,0,0,1,0-4.4l6.2-6.1a3.23,3.23,0,0,1,2.1-.8h.1a2.61,2.61,0,0,1,2.1,1.1l13.2,15.6a3.07,3.07,0,0,1-.2,4.1l-4.6,4.4A2.52,2.52,0,0,1,319.3,451.8Z"/><path class="g" d="M304.5,434.8l6.2-6.1,13.2,15.6-4.6,4.4Z"/></svg>