<?xml version="1.0" encoding="utf-8"?>
<!-- Generator: Adobe Illustrator 24.1.0, SVG Export Plug-In . SVG Version: 6.00 Build 0)  -->
<svg version="1.1" xmlns="http://www.w3.org/2000/svg" xmlns:xlink="http://www.w3.org/1999/xlink" x="0px" y="0px"
	 viewBox="0 0 519.6 600" style="enable-background:new 0 0 519.6 600;" xml:space="preserve">
<style type="text/css">
	.st0{fill:#750787;}
	.st1{fill:#004DFF;}
	.st2{fill:#008026;}
	.st3{fill:#FFED00;}
	.st4{fill:#FF8C00;}
	.st5{fill:#E40303;}
	.st6{fill:#FFFFFF;}
</style>
<g id="Background_1_">
	<g id="Colors">
		<polygon class="st0" points="259.8,576.8 418.8,485 100.8,485 		"/>
		<polygon class="st1" points="20.7,438.7 100.8,485 418.8,485 498.9,438.7 498.9,392.5 20.7,392.5 		"/>
		<rect x="20.7" y="300" class="st2" width="478.2" height="92.5"/>
		<rect x="20.7" y="207.5" class="st3" width="478.2" height="92.5"/>
		<polygon class="st4" points="20.7,207.5 498.9,207.5 498.9,162.7 416.3,115 103.3,115 20.7,162.7 		"/>
		<polygon class="st5" points="259.8,24.6 103.3,115 416.3,115 		"/>
	</g>
	<g id="Border">
		<path d="M498.9,138L302.5,24.6L259.8,0l-42.6,24.6L20.7,138L0,150v300l20.7,12l198.9,114.8l40.2,23.2l40.2-23.2L498.9,462l20.7-12
			V150L498.9,138z M498.9,438.7l-239.1,138l-239.1-138V162.6l239.1-138l239.1,138V438.7z"/>
	</g>
</g>
<g id="Text_1_">
	<g id="Text">
		<path d="M117.6,382.7c-10.4,0-18-6.6-18-15.8c0-14,15.1-17.8,30.9-19.2c-1-2.9-3.5-4.2-7.6-4.2c-3.8,0-8.2,1.5-13.5,4.6
			c-0.5,0.3-1,0.4-1.5,0.4c-0.3,0-0.5,0-0.8-0.1c-0.8-0.2-1.4-0.7-1.8-1.4l-3.5-6c-0.8-1.4-0.3-3.2,1-4c4.1-2.5,12.3-6.7,21.6-6.7
			c13.5,0,21.6,8.1,21.6,21.7v26.7c0,1.7-1.3,3-3,3h-7.5c-1.5,0-2.8-1.1-3-2.6l-0.1-1C128.7,380.4,123.4,382.7,117.6,382.7z
			 M131,359.5c-16.6,1.6-16.6,5.5-16.6,6.8c0,1.2,0.7,3.3,5.7,3.3c3.4,0,6.9-1.4,10.8-4.4v-5.7H131z"/>
		<path class="st6" d="M124.5,333.2c-7.7,0-15.1,3.2-20,6.3l3.5,6c4.3-2.5,9.6-5,15-5c7.9,0,10.8,4.4,11.1,9.9
			c-22.4,1.7-31.4,6.6-31.4,16.5c0,7.8,6.5,12.8,15,12.8c6.1,0,12.2-3.1,17-6.8h0.3l0.7,5.8h7.5V352
			C143.1,340.2,136.7,333.2,124.5,333.2z M134,366.6c-4.6,3.7-9.1,6-13.8,6c-4.7,0-8.7-1.8-8.7-6.3c0-5.3,5.2-8.8,22.6-10v10.3H134z
			"/>
		<path d="M181.6,382.7c-16.4,0-27.4-10.5-27.4-26.2c0-15.5,11.5-26.3,28-26.3c9,0,15,3.9,18.3,7.2c1.1,1.1,1.2,2.8,0.3,4l-4.3,5.7
			c-0.5,0.6-1.2,1.1-2,1.2c-0.1,0-0.2,0-0.3,0c-0.7,0-1.4-0.2-1.9-0.7c-3.3-2.7-6.3-4-9.6-4c-8,0-13.1,5.1-13.1,12.9
			c0,7.7,5,12.7,12.8,12.7c3.8,0,7.5-1.5,11.3-4.5c0.5-0.4,1.2-0.7,1.9-0.7c0.1,0,0.3,0,0.4,0c0.8,0.1,1.6,0.6,2,1.3l3.9,5.8
			c0.8,1.3,0.6,2.9-0.5,3.9C195.7,380,188.7,382.7,181.6,382.7z"/>
		<path class="st6" d="M182.3,372.3c-9.4,0-15.8-6.3-15.8-15.7c0-9.5,6.6-15.9,16.1-15.9c4.3,0,7.9,1.7,11.5,4.6l4.3-5.7
			c-3.7-3.6-9.1-6.4-16.3-6.4c-13.5,0-25,8.5-25,23.3c0,14.7,10.5,23.2,24.4,23.2c6.4,0,12.7-2.4,17.8-6.8l-3.9-5.8
			C191.9,370,187.6,372.3,182.3,372.3z"/>
		<path d="M240.3,382.7c-9.4,0-20.7-3.8-20.7-21.6v-16.6h-9.2c-1.7,0-3-1.3-3-3v-6.7c0-1.6,1.3-2.9,2.9-3l9.9-0.4l1-11.4
			c0.1-1.6,1.4-2.7,3-2.7h7.5c1.7,0,3,1.3,3,3v11h17.9c1.7,0,3,1.3,3,3v7.2c0,1.7-1.3,3-3,3h-17.9v16.6c0,6.4,1.8,8.3,7.7,8.3
			c3.1,0,5.8-0.5,9.1-1.7c0.3-0.1,0.7-0.2,1-0.2c0.5,0,0.9,0.1,1.4,0.3c0.7,0.4,1.3,1.1,1.5,1.9l1.8,6.6c0.4,1.5-0.4,3.1-1.9,3.6
			C251.4,381.3,246.5,382.7,240.3,382.7z"/>
		<path class="st6" d="M242.4,372.4c-8,0-10.7-3.7-10.7-11.3v-19.6h20.9v-7.2h-20.9v-14h-7.5l-1.2,14l-12.6,0.5v6.7h12.2v19.6
			c0,11.1,4.4,18.6,17.7,18.6c5.7,0,10-1.2,14-2.6l-1.8-6.6C249.4,371.7,246.3,372.4,242.4,372.4z"/>
		<path d="M290.6,328.6c-5.6,0-9.7-4-9.7-9.4c0-5.5,4.1-9.4,9.7-9.4s9.7,4,9.7,9.4C300.3,324.7,296.2,328.6,290.6,328.6z"/>
		<path class="st6" d="M290.6,312.8c-3.9,0-6.7,2.6-6.7,6.4c0,3.9,2.8,6.4,6.7,6.4c3.9,0,6.7-2.5,6.7-6.4
			C297.3,315.4,294.5,312.8,290.6,312.8z"/>
		<path d="M286.8,381.6c-1.7,0-3-1.3-3-3v-34.1H267c-1.7,0-3-1.3-3-3v-7.2c0-1.7,1.3-3,3-3h28.9c1.7,0,3,1.3,3,3v44.3
			c0,1.7-1.3,3-3,3L286.8,381.6L286.8,381.6z"/>
		<polygon class="st6" points="267,341.5 286.8,341.5 286.8,378.6 295.9,378.6 295.9,334.3 267,334.3 		"/>
		<path d="M335.8,381.6c-1.2,0-2.3-0.7-2.8-1.9l-18.2-44.3c-0.4-0.9-0.3-2,0.3-2.8c0.6-0.8,1.5-1.3,2.5-1.3h9.2
			c1.2,0,2.3,0.8,2.8,1.9l9.4,24c0.7,1.9,1.4,3.8,2,5.6c0.6-1.8,1.3-3.7,2-5.6l9.4-24c0.5-1.2,1.6-1.9,2.8-1.9h8.7
			c1,0,1.9,0.5,2.5,1.3s0.7,1.9,0.3,2.8l-17.8,44.3c-0.5,1.1-1.6,1.9-2.8,1.9H335.8z"/>
		<path class="st6" d="M345.8,358.3c-1.7,4.5-3.1,8.9-4.6,13.3h-0.4c-1.5-4.4-3-8.8-4.7-13.3l-9.4-24h-9.2l18.2,44.3H346l17.8-44.3
			h-8.7L345.8,358.3z"/>
		<path d="M397.9,382.7c-15.9,0-27.1-10.8-27.1-26.3c0-14.9,11.1-26.2,25.7-26.2c14.2,0,23.4,9.4,23.4,23.9c0,1.6-0.2,3.5-0.4,5.4
			c-0.2,1.5-1.5,2.5-3,2.5h-30c2.3,6.5,8.6,7.6,12.5,7.6c4,0,7.4-1,11.4-3.5c0.5-0.3,1-0.4,1.5-0.4c0.3,0,0.5,0,0.8,0.1
			c0.8,0.2,1.5,0.7,1.8,1.4l3.2,5.7c0.8,1.4,0.3,3.1-1,4C412.8,379.6,406.3,382.7,397.9,382.7z M405.3,349.4c-1.2-4.2-4-6.2-8.5-6.2
			s-8,2.3-9.8,6.2H405.3z"/>
		<path class="st6" d="M417,354.1c0-12.4-7.4-20.9-20.4-20.9c-11.9,0-22.7,8.7-22.7,23.2c0,14.8,10.6,23.3,24.1,23.3
			c6.8,0,12.7-2.3,17.3-5.3l-3.2-5.7c-4,2.4-8,3.9-13,3.9c-8.7,0-15.2-4.5-16.2-13.6h33.7C416.7,357.9,417,356.1,417,354.1z
			 M396.8,340.2c6.9,0,11.4,4.1,12.1,12.2H383C384.4,344.5,390.1,340.2,396.8,340.2z"/>
		<path d="M164.5,289.1c-1,0-1.9-0.5-2.4-1.3L149,269.5l-6,6v10.6c0,1.7-1.3,3-3,3h-9c-1.7,0-3-1.3-3-3v-64.3c0-1.7,1.3-3,3-3h9
			c1.7,0,3,1.3,3,3v34.9l17.1-17.1c0.6-0.6,1.3-0.9,2.1-0.9h10.2c1.2,0,2.3,0.7,2.8,1.8s0.2,2.4-0.6,3.3L159,259.5l18.1,24.7
			c0.7,0.9,0.8,2.1,0.3,3.1s-1.5,1.6-2.7,1.6h-10.2V289.1z"/>
		<polygon class="st6" points="172.3,241.8 162.1,241.8 140.3,263.6 139.9,263.6 139.9,221.8 130.9,221.8 130.9,286.1 139.9,286.1 
			139.9,274.3 149.3,264.9 164.5,286.1 174.4,286.1 154.8,259.3 		"/>
		<path d="M215.3,289.1c-1.7,0-3-1.3-3-3v-26.3c0-7.7-2.7-8.3-6.2-8.3c-3.2,0-5.6,1.3-9.6,5.3v29.3c0,1.7-1.3,3-3,3h-9
			c-1.7,0-3-1.3-3-3v-44.3c0-1.7,1.3-3,3-3h7.4c1.5,0,2.8,1.2,3,2.7l0.1,1.5c3.7-2.9,8.3-5.2,14.3-5.2c15.7,0,18.1,13.1,18.1,20.9
			v27.5c0,1.7-1.3,3-3,3h-9.1V289.1z"/>
		<path class="st6" d="M209.2,240.7c-6.8,0-11.9,3.6-16.3,8.2h-0.4l-0.7-7.1h-7.4v44.3h9v-30.6c4.6-4.7,7.8-7.1,12.6-7.1
			c6.6,0,9.2,3.6,9.2,11.3V286h9v-27.5C224.3,247.1,219.6,240.7,209.2,240.7z"/>
		<path d="M262.4,236.1c-5.6,0-9.7-4-9.7-9.4c0-5.5,4.1-9.4,9.7-9.4s9.7,4,9.7,9.4C272.1,232.2,268,236.1,262.4,236.1z"/>
		<path class="st6" d="M262.4,220.3c-3.9,0-6.7,2.6-6.7,6.4c0,3.9,2.8,6.4,6.7,6.4s6.7-2.5,6.7-6.4
			C269.1,222.9,266.3,220.3,262.4,220.3z"/>
		<path d="M258.6,289.1c-1.7,0-3-1.3-3-3V252h-16.8c-1.7,0-3-1.3-3-3v-7.2c0-1.7,1.3-3,3-3h28.9c1.7,0,3,1.3,3,3v44.3
			c0,1.7-1.3,3-3,3H258.6z"/>
		<polygon class="st6" points="238.8,249 258.6,249 258.6,286.1 267.7,286.1 267.7,241.8 238.8,241.8 		"/>
		<path d="M320.9,290.2c-9.4,0-20.7-3.8-20.7-21.6V252H291c-1.7,0-3-1.3-3-3v-6.7c0-1.6,1.3-2.9,2.9-3l9.9-0.4l1-11.4
			c0.1-1.6,1.4-2.7,3-2.7h7.5c1.7,0,3,1.3,3,3v11h17.9c1.7,0,3,1.3,3,3v7.2c0,1.7-1.3,3-3,3h-17.9v16.6c0,6.4,1.8,8.3,7.7,8.3
			c3.1,0,5.8-0.5,9.1-1.7c0.3-0.1,0.7-0.2,1-0.2c0.5,0,0.9,0.1,1.4,0.3c0.7,0.4,1.3,1.1,1.5,1.9l1.8,6.6c0.4,1.5-0.4,3.1-1.9,3.6
			C332,288.8,327.2,290.2,320.9,290.2z"/>
		<path class="st6" d="M323,279.9c-8,0-10.7-3.7-10.7-11.3V249h20.9v-7.2h-20.9v-14h-7.5l-1.2,14l-12.6,0.5v6.7h12.2v19.6
			c0,11.1,4.4,18.6,17.7,18.6c5.7,0,10-1.2,14-2.6l-1.8-6.6C330.1,279.2,326.9,279.9,323,279.9z"/>
		<path d="M352.2,289.1c-1.7,0-3-1.3-3-3v-44.3c0-1.7,1.3-3,3-3h7.5c1.6,0,2.9,1.2,3,2.8l0.2,3.1c4.7-4.5,10.6-6.9,17.1-6.9
			c4,0,7,0.6,10,2.1c1.3,0.6,1.9,2.1,1.6,3.4l-2,7.7c-0.2,0.8-0.7,1.5-1.5,1.9c-0.4,0.2-0.9,0.4-1.5,0.4c-0.3,0-0.6,0-0.9-0.1
			c-2.9-0.9-4.3-1.3-7.2-1.3c-5.8,0-10.5,3.3-14.4,10v24.4c0,1.7-1.3,3-3,3h-8.9V289.1z"/>
		<path class="st6" d="M380,240.7c-7.9,0-14.7,4.2-19.3,11.4h-0.2l-0.8-10.3h-7.5v44.3h9V261c4.9-8.9,11-12.2,17.4-12.2
			c3.4,0,5.1,0.5,8.1,1.4l2-7.7C386,241.2,383.5,240.7,380,240.7z"/>
		<path d="M210.5,174.3c-0.7,0-1.5-0.3-2.1-0.8l-14.8-14c-0.6-0.6-0.9-1.3-0.9-2.2s0.3-1.6,0.9-2.2l6.2-6.1c0.6-0.5,1.3-0.8,2.1-0.8
			h0.1c0.8,0,1.6,0.4,2.1,1.1l13.2,15.6c1,1.2,0.9,3-0.2,4.1l-4.6,4.4C212,174,211.2,174.3,210.5,174.3z"/>
		<path class="st6" d="M195.7,157.3l6.2-6.1l13.2,15.6l-4.6,4.4L195.7,157.3z"/>
		<path d="M264.9,174.3c-0.7,0-1.5-0.3-2.1-0.8l-14.8-14c-0.6-0.6-0.9-1.3-0.9-2.2s0.3-1.6,0.9-2.2l6.2-6.1c0.6-0.5,1.3-0.8,2.1-0.8
			h0.1c0.8,0,1.6,0.4,2.1,1.1l13.2,15.6c1,1.2,0.9,3-0.2,4.1l-4.6,4.4C266.4,174,265.7,174.3,264.9,174.3z"/>
		<path class="st6" d="M250.1,157.3l6.2-6.1l13.2,15.6l-4.6,4.4L250.1,157.3z"/>
		<path d="M319.3,174.3c-0.7,0-1.5-0.3-2.1-0.8l-14.8-14c-0.6-0.6-0.9-1.3-0.9-2.2s0.3-1.6,0.9-2.2l6.2-6.1c0.6-0.5,1.3-0.8,2.1-0.8
			h0.1c0.8,0,1.6,0.4,2.1,1.1l13.2,15.6c1,1.2,0.9,3-0.2,4.1l-4.6,4.4C320.8,174,320.1,174.3,319.3,174.3z"/>
		<path class="st6" d="M304.5,157.3l6.2-6.1l13.2,15.6l-4.6,4.4L304.5,157.3z"/>
		<path d="M210.5,451.8c-0.7,0-1.5-0.3-2.1-0.8l-14.8-14c-0.6-0.6-0.9-1.3-0.9-2.2s0.3-1.6,0.9-2.2l6.2-6.1c0.6-0.5,1.3-0.8,2.1-0.8
			h0.1c0.8,0,1.6,0.4,2.1,1.1l13.2,15.6c1,1.2,0.9,3-0.2,4.1l-4.6,4.4C212,451.5,211.2,451.8,210.5,451.8z"/>
		<path class="st6" d="M195.7,434.8l6.2-6.1l13.2,15.6l-4.6,4.4L195.7,434.8z"/>
		<path d="M264.9,451.8c-0.7,0-1.5-0.3-2.1-0.8L248,437c-0.6-0.6-0.9-1.3-0.9-2.2s0.3-1.6,0.9-2.2l6.2-6.1c0.6-0.5,1.3-0.8,2.1-0.8
			h0.1c0.8,0,1.6,0.4,2.1,1.1l13.2,15.6c1,1.2,0.9,3-0.2,4.1l-4.6,4.4C266.4,451.5,265.7,451.8,264.9,451.8z"/>
		<path class="st6" d="M250.1,434.8l6.2-6.1l13.2,15.6l-4.6,4.4L250.1,434.8z"/>
		<path d="M319.3,451.8c-0.7,0-1.5-0.3-2.1-0.8l-14.8-14c-0.6-0.6-0.9-1.3-0.9-2.2s0.3-1.6,0.9-2.2l6.2-6.1c0.6-0.5,1.3-0.8,2.1-0.8
			h0.1c0.8,0,1.6,0.4,2.1,1.1l13.2,15.6c1,1.2,0.9,3-0.2,4.1l-4.6,4.4C320.8,451.5,320.1,451.8,319.3,451.8z"/>
		<path class="st6" d="M304.5,434.8l6.2-6.1l13.2,15.6l-4.6,4.4L304.5,434.8z"/>
	</g>
</g>
</svg>
