<?xml version="1.0" encoding="utf-8"?>
<!-- Generator: Adobe Illustrator 24.1.0, SVG Export Plug-In . SVG Version: 6.00 Build 0)  -->
<svg version="1.1" xmlns="http://www.w3.org/2000/svg" xmlns:xlink="http://www.w3.org/1999/xlink" x="0px" y="0px"
	 viewBox="0 0 519.6 600" style="enable-background:new 0 0 519.6 600;" xml:space="preserve">
<style type="text/css">
	.st0{fill:url(#Background_2_);}
	.st1{fill:#2D251D;}
</style>
<g id="Background">
	<radialGradient id="Background_2_" cx="259.8" cy="300" r="280.6208" gradientUnits="userSpaceOnUse">
		<stop  offset="0" style="stop-color:#F7E7C3"/>
		<stop  offset="0.4888" style="stop-color:#F4DFAD"/>
		<stop  offset="1" style="stop-color:#D3BD94"/>
	</radialGradient>
	<path id="Background_1_" class="st0" d="M498.9,138L302.5,24.6L259.8,0l-42.6,24.6L20.7,138L0,150v300l20.7,12l198.9,114.8
		l40.2,23.2l40.2-23.2L498.9,462l20.7-12V150L498.9,138z"/>
	<g id="Border">
		<path class="st1" d="M498.9,138L302.5,24.6L259.8,0l-42.6,24.6L20.7,138L0,150v300l20.7,12l198.9,114.8l40.2,23.2l40.2-23.2
			L498.9,462l20.7-12V150L498.9,138z M498.9,438.7l-239.1,138l-239.1-138V162.6l239.1-138l239.1,138V438.7z"/>
	</g>
</g>
<g id="Text">
	<g>
		<path class="st1" d="M171.8,322.8c-0.5,0-0.9,0.4-1.3,1.2c-1.9,0.7-3.6,0.9-5.3,0.9c-6.1,0-12-3.2-17.3-5.6
			c-3.3-3.5-14.5-11.7-15.5-16.7c-4.7-3.5-7-8.1-11.4-12.4l-0.1-0.7c0-2.4,3.9-1.2,5.7-2c4.5-2.4,10-2.4,13.6-6.4
			c8.9-4,14.1-12.1,18.7-20.1c0.7-2.7,2.7-5.3,2.7-8.2c0-0.7-0.1-1.3-0.4-2c-0.4-3.5-2-6.1-3.5-8.9c-3.2-8.1-11.6-13.2-18.7-17.4
			c-3.1-0.5-5.4-2.7-8.6-3.2c-8.9-4.4-19.4-5.6-29.9-5.6c-2.4,0-4.9,0-7.3,0.1c-13.6,3.9-28.2,6.5-36.8,20.3
			c-3.2,3.1-4.3,7.6-4.3,12.2c0,4.1,0.8,8.4,1.7,11.8c3.9,6.1,11.2,11.6,18.3,12.8l2.5,0.1c10.6,0,19.3-4.8,27.8-11.7
			c1.3,0,1.3-1.5,2-2.4c3.9-3.1,6.2-8.2,6.2-13.2v-0.4c-0.5-1.7-1.2-4-3.5-4.7h-0.9c-2.8,0-5.8,0.5-8.4,1.9c-2.4,2-5.3,3.7-6.8,6.2
			c0.1,0.7,0.8,1.3,1.5,1.3c0.3,0,0.5,0,0.7-0.3c3.5-3.3,7.4-6.1,12.8-6.1h0.4c0.4,0.8,0.5,1.6,0.5,2.5c0,2.3-0.9,4.5-1.5,6.6
			c-7.6,8.9-18.1,17.3-30.6,17.7c-7.7-1.1-16.1-5.3-19.1-13c-0.9-2.1-1.3-4.4-1.3-6.8c0-4.5,1.5-9.2,3.3-12.5
			c4.3-4.7,8.5-10.5,14.8-12.1c5.1-4.1,11.7-4.5,17.4-7.3c2.8-0.4,5.6-0.5,8.4-0.5c6.1,0,12.1,0.8,18.2,1.6c7.3,1.7,14.4,3.9,21,7
			c3.2,2,6.5,4.4,9.6,6.9c4.8,1.7,5.4,6.9,8.6,9.8c0.9,3.5,2.1,6.8,2.7,10.4c-1.9,1.7,0,3.9-2.7,5.2c-0.3,4-3.1,7.2-5.7,10l-0.8,0.8
			c-7.3,9.2-17.8,13.4-28.4,15.7c-0.8,0.3-1.9,0.5-2.8,0.5c-0.9,0-1.7-0.3-2.3-0.7l1.3-2.5c5.2-10.1,10.6-20.6,10.6-32
			c0-1.2,0-2.3-0.1-3.5l-0.1-0.4V247l-0.5-0.8c-0.5,0.4-1.2,0.4-1.5,0.9c-0.8,5.7,0.3,12.2-2.3,17.1c-3.5,6.5-5.4,13.8-10.2,19.3
			c-2.4-2.9-6.5-3.1-9.3-5.4c-3.9-1.3-8.2-2-12.6-2h-2.1c-2.4,2.3-7.4,2.4-7.4,6.8c5.1,9.2,17,7,26.5,7.7l0.8,0.8
			c-2.5,3.6-4.5,8.1-7.7,10.9c-6.4,9.3-15.6,15.6-24.5,23.3c-8,5.8-17,10-27,10l-1.1-0.9c1.1-3.5,5.1-6.2,7.4-9
			c1.3-1.2,3.6-1.1,4.1-2.4c-0.7-1.9-3.1-1.2-4.3-2.3l-0.4,1.2c-4.3,3.5-9.4,8.1-10.4,14c1.5,2.8,4.4,1.2,6.6,2.7
			c6.1,0,11.2-3.5,16.7-4.7c3.5-2.9,8.2-4.1,10.9-7.6c3.2-1.7,5.6-4.5,9-6.5c8.2-8.4,16.5-15.7,21.8-26.2c2.3,0,0.3-2.7,2.4-3.2
			c0.9-0.4,1.7-0.7,2.7-0.7c0.9,0,2,0.4,2.9,1.1c8.8,8.2,20.6,26.2,30.5,32.4c5.3,2.4,11.6,4.1,17.7,4.1c2.5,0,4.9-0.3,7.3-0.9
			c0.7-0.7,1.9-0.9,1.9-1.6c0-0.1-0.1-0.4-0.4-0.7C174,324,172.8,322.8,171.8,322.8z M110.3,287.6c-2.9,0.1-6.1,0.3-9.2,0.3
			c-6.1,0-12-0.7-16.6-4.3l-0.1-0.5c0-1.7,2.5-1.5,3.2-2.9c2-0.7,3.7-0.8,5.6-0.8c6.6,0,12.4,3.5,17.8,6.6
			C111,286.8,111,287.2,110.3,287.6z"/>
		<path class="st1" d="M281.4,300.1c-3.7,2.4-7.6,5.2-11.4,6.9c-0.3-0.5,0.2-1.3,0.2-1.8c0-2,1.8-4.5,2.7-6.4c1.1-4.4,4-8.5,4-13.2
			l-0.1-1.2c-0.5-0.7-1.7-1.6-2.8-1.6c-0.4,0-0.7,0.1-1.1,0.4c-5.1,4.3-11.4,8.2-16.5,12.4c-3.9,5.1-9.8,9-13,14.8l-0.3-0.4
			c2.1-4.7,3.2-10,6.2-14.4c1.9-8.1,9.7-14.5,13.8-21.6c1.9-3.1,2.3-1.2,2.3-4.8c0-0.4,0.3-1,0.2-1.5c-0.1-2-0.2-2.5-1.7-2.5
			c-1.5,0-3.6,0.6-4.1,1.9c-1.5,3.5-1.4,1.8-2.5,4.9c-2.4,11-12.8,20.6-22.3,27.5c0,0,0,0,0,0c-3.1,2.3-6.8,4.5-9.7,6.1l-0.8,0.4
			c-2.4,0.9-4.9,2.8-7.4,2.8c-0.7,0-1.2-0.1-1.9-0.4c-1.5-2.8-3.2-3.5-3.2-6.9l0.1-1.1c2.7-2.4,15.5-14.4,17.5-17.3
			c-0.7-0.8-1.3-1.2-1.9-1.2c-2,0-12.8,13.8-15.6,13.8h-0.4c-2.4-2.3-0.9-9.2-3.9-11.2c-10.7,1.7-18.2,7.9-27,14.2l-0.5,0.1
			c-5.1,3.5-11.8,9.2-17.9,9.2c-0.7,0-1.2,0-1.7-0.1c-2.5-1.2-3.2-3.6-3.3-6c0.5-0.5,1.1-1.3,1.8-1.3h0.1
			c6.8-2.7,16.4-10.5,17.2-18.5c0-0.5-0.4-1.2-0.7-1.6l-1.2-1.1h-0.9c-5.2,0-10.2,2.3-13.8,6.4c-1.8,3.1-3.2,8.2-5,11.6
			c-0.6,1.1-0.7,2.4-0.5,3.6c0.6,3.1,1,6.3,3.6,8.7c1.5,1.1,2.8,1.3,4.1,1.3c3.6,0,6.9-2.5,10.1-3.5c2.2-1.9,5.3-3.5,7.7-5.4
			l0.2,0.1c6.2-4.3,13.2-9.6,20.1-12.8c1.6-0.3,3.3-1.2,4.8-1.2c0.7,0,1.3,0.1,1.9,0.7l1.1,9.3c-2.1,1.9-3.9,3.7-6.2,4.8
			c-1.6,2.3-14.3,10.9-15.1,13.2v0.3c0,0.8,0.5,0.9,1.2,0.9h1.5c2.5-3.2,15.4-11.2,17.9-14.3l0.6-0.2c0.7,0,1.2-0.7,1.9,0.8
			c1.3,2.8,2.4,6,4.9,7.8c0.8,0.3,1.5,0.3,2.1,0.3c3.5,0,6.5-2.4,9.6-4.1c3.1-0.7,5-2.9,8.1-4.9h0.2c1.3-0.8,4.7-3.6,6.2-4
			c1.5-0.7,2.8-1.9,4-1.9h0.3c-10.1,26.1-28.3,59.6-38.8,85.3l0.5,1.2c0.4,0.3,0.8,0.4,1.1,0.4c1.2,0,1.9-1.5,1.9-2.5
			c1.2-2.9,6.8-14.9,8.5-17.6c8.8-23.1,20.5-46.3,38.4-64.2c4.8-4,10.1-9.6,15.9-10.9l-0.4,3.1c-1,5.4-4.2,14.3-8.7,15.6
			c-0.5,0.2,0,1.4,0.4,1.7c2.1,1.3,5.3,0.7,6.3,0.7c4.1,0,8.5-5.3,11.3-6.9c0.8-0.5,1.3-0.8,1.7-1.1c0.6,2.9,1.1,5.8,3.5,8
			c1.5,1.1,2.8,1.3,4.1,1.3c3.6,0,6.9-2.5,10.1-3.5c2.2-1.9,5.3-3.6,7.7-5.5c0,2.4,0.7,4.7,1.9,6.9c1.1,5.3,6.8,8.6,11.8,9.6
			c14.2-0.5,22.1-7.8,31.3-15.1c0.1,0.1,1.2-1,1.3-0.9c7.4-5.3,17.6-10.8,24.7-16.2c0.9-0.1,1.5-1.6,2.3-1.6c0.1,0,0.4,0,0.7,0.3
			c-1.6,7-4.5,13.4-5.7,20.6c-0.1,0.9-0.1,2-0.1,3.1c0,1.9,0.3,3.9,1.3,5.3c0.9,0.3,1.7,0.4,2.5,0.4c2.8,0,5.1-1.3,7.6-2.3
			c4.4-2,10-5.4,15.6-9.7c0.8-0.9,1.2-1.5,1.2-1.7c0-0.5-0.9-0.3-1.1-1.3c-2.7,2-6.5,4.5-9.6,6.1c-4,2.9-7.8,5.6-13.6,5.7
			c-1.2-1.2-0.3-3.1-1.1-4.4c1.3-10.4,5.6-19.8,10-28.8c2-3.2,4.7-6.1,6.9-9c2.7-1.9,3.9-5.2,6.4-7.3c0.5-2.3,1.7-2.9,3.1-2.9
			c1.5,0,3.3,0.8,5.1,0.8c0.7,0,1.3-0.1,2-0.5c3.7,0.3,7.3,0.5,11,0.4l44-0.9h5.3l1.5-1.5l0.1-0.5c0-0.5-0.4-1.1-0.9-1.5
			c-6.5,1.1-12.9,1.5-19,1.5l-33.6-0.7h-2.4c-3.5,0-6.9,0.1-10.6,0.4l-0.7-0.7c1.7-5.1,6.6-9.2,6.6-14.9c0-0.7,0-1.3-0.1-2
			c-0.5-0.5-1.2-0.8-1.9-0.8c-0.5,0-1.1,0.1-1.6,0.4c-2.8,0.8-3.3,4.1-5.2,6.1c-4.7,2.9-3.6,8.9-7.8,11.4l-37.2-2
			c-13.3-0.8-25.7-3.1-37.4-6.9l-3.5-2.8c-0.1-0.4-0.1-0.8-0.1-1.2c0-1.7,1.1-3.1,2-4.5c5.1-6.2,13-9.3,20.6-11.4v-1.1l-0.4-1.2
			l-1.3-0.1c-5.2,0-8.8,3.7-13.3,4.8c-3.3,4.1-9.6,5.1-9.8,10.9c-0.3,0.9-0.4,1.9-0.4,2.8c0,2.3,0.8,4.4,2.8,5.7
			c22.7,9.2,50.9,7.7,76.2,9.7c0.3,0.4,0.4,0.8,0.4,1.2c0,1.5-1.5,2.9-2.3,4.3c-5.1,12.5-16.5,21-27.5,28.3
			c-1.7,1.7-3.4,1.7-8.1,4.8l-3.7,2.7c-1.6,1-3.4,2-4.1,2.6c-8.4,6.4-17.3,12.9-28.4,13.6c-4.9,0-8-4.8-9.8-8.6
			c-0.8-1.5-1.2-2.9-1.2-4.5c0-3.3,1.6-6.6,3.1-9.6l0.1-0.4c4.9-6.4,12.2-13.3,21-13.3c0.8,0,1.5,0,2.3,0.1c1.3,1.1,2,2.1,2,3.6v0.8
			c-1.6,1.9-3.5,4.9-6,5.4c-0.5-0.4-0.7-0.8-0.7-1.2l0.5-1.9c0-0.3-0.1-0.7-0.4-0.9l-0.8,0.1c-1.7,1.1-2.5,3.1-2.5,5.3v0.5
			c0.5,1.2,1.5,1.5,2.7,1.5c0.9,0,2-0.3,2.8-0.4c2.7-1.5,5.2-4.4,6.9-7c0.3-0.4,0.3-0.9,0.3-1.3c0-1.3-0.5-2.5-0.7-3.9
			c-1.9-2.1-4.7-3.7-7.8-3.7c-0.5,0-1.2,0-1.9,0.1c-6.9,2.5-14.2,5.8-18.3,12.2c-2.3,2.9-4,6.4-4.7,10c-5,3.5-11.7,9-17.7,9
			c-0.7,0-1.2,0-1.7-0.1c-2.5-1.2-3.2-3.7-3.3-6.1c0.5-0.5,1.1-1.2,1.7-1.2h0.1c7-2.8,14.2-7.1,14.5-15.3l-2-1.9h-0.9
			c-5.2,0-8.6,3.3-12.2,7.4c-2.1,3.6-2.5,5.1-4.8,8.3 M288.2,296.5c0-2.1,1.2-1.9,1.9-4.3c2.7-1.7,5.2-5.2,8.6-5.8
			c0.1,0.3,0.3,0.5,0.3,0.9c0,1.5-1.2,3.2-1.7,4.5c-3.3,3.3-5.1,3.9-9,5V296.5z M159.6,296.5c0-1.9,1.9-6,2.8-8.5
			c0.2-0.5,0.5-0.9,0.9-1.1c2.6-1.7,6.4-3.7,9.6-4.4c0.1,0.3,0.3,0.5,0.3,0.9c0,1.5-1.2,3.2-1.7,4.5c-3.3,3.3-7.8,7.8-11.8,8.8
			V296.5z M404.1,255.5h-1.5c0.9-2.9,3.1-5.3,4.5-7.7l3.2-3.9v1.9L404.1,255.5z"/>
	</g>
</g>
</svg>
